<mxfile host="app.diagrams.net" agent="Mozilla/5.0 (X11; Linux x86_64) AppleWebKit/537.36 (KHTML, like Gecko) Chrome/131.0.0.0 Safari/537.36" version="26.0.2">
  <diagram name="Page-1" id="AbW_J8hwqGBpF5IX1FMp">
    <mxGraphModel dx="862" dy="462" grid="1" gridSize="10" guides="1" tooltips="1" connect="1" arrows="1" fold="1" page="1" pageScale="1" pageWidth="827" pageHeight="1169" math="0" shadow="0">
      <root>
        <mxCell id="0" />
        <mxCell id="1" parent="0" />
        <mxCell id="FQEgH4Acm4p3Cgtq5KyJ-12" style="edgeStyle=orthogonalEdgeStyle;rounded=0;orthogonalLoop=1;jettySize=auto;html=1;exitX=0.75;exitY=1;exitDx=0;exitDy=0;entryX=0.75;entryY=0;entryDx=0;entryDy=0;" parent="1" edge="1">
          <mxGeometry relative="1" as="geometry">
            <mxPoint x="220" y="120" as="sourcePoint" />
            <mxPoint x="220" y="240" as="targetPoint" />
          </mxGeometry>
        </mxCell>
        <mxCell id="FQEgH4Acm4p3Cgtq5KyJ-2" value="modules" style="rounded=1;whiteSpace=wrap;html=1;" parent="1" vertex="1">
          <mxGeometry x="80" y="80" width="160" height="40" as="geometry" />
        </mxCell>
        <mxCell id="FQEgH4Acm4p3Cgtq5KyJ-3" value="device ops" style="rounded=1;whiteSpace=wrap;html=1;" parent="1" vertex="1">
          <mxGeometry x="80" y="240" width="160" height="40" as="geometry" />
        </mxCell>
        <mxCell id="FQEgH4Acm4p3Cgtq5KyJ-4" value="tensor ops" style="rounded=1;whiteSpace=wrap;html=1;" parent="1" vertex="1">
          <mxGeometry x="80" y="160" width="120" height="40" as="geometry" />
        </mxCell>
        <mxCell id="FQEgH4Acm4p3Cgtq5KyJ-10" style="edgeStyle=orthogonalEdgeStyle;rounded=0;orthogonalLoop=1;jettySize=auto;html=1;exitX=0.25;exitY=1;exitDx=0;exitDy=0;entryX=0.344;entryY=-0.058;entryDx=0;entryDy=0;entryPerimeter=0;" parent="1" edge="1">
          <mxGeometry relative="1" as="geometry">
            <mxPoint x="120" y="120.02999999999999" as="sourcePoint" />
            <mxPoint x="121.27999999999997" y="157.71000000000006" as="targetPoint" />
          </mxGeometry>
        </mxCell>
        <mxCell id="FQEgH4Acm4p3Cgtq5KyJ-11" style="edgeStyle=orthogonalEdgeStyle;rounded=0;orthogonalLoop=1;jettySize=auto;html=1;exitX=0.5;exitY=1;exitDx=0;exitDy=0;entryX=0.367;entryY=-0.075;entryDx=0;entryDy=0;entryPerimeter=0;" parent="1" edge="1">
          <mxGeometry relative="1" as="geometry">
            <mxPoint x="121.32999999999988" y="200" as="sourcePoint" />
            <mxPoint x="120.04999999999991" y="237" as="targetPoint" />
          </mxGeometry>
        </mxCell>
        <mxCell id="JrcSGZeKWpiTpf5liUEg-1" value="" style="rounded=0;whiteSpace=wrap;html=1;" vertex="1" parent="1">
          <mxGeometry x="400" y="200" width="160" height="20" as="geometry" />
        </mxCell>
        <mxCell id="JrcSGZeKWpiTpf5liUEg-2" value="" style="rounded=0;whiteSpace=wrap;html=1;" vertex="1" parent="1">
          <mxGeometry x="560" y="200" width="160" height="20" as="geometry" />
        </mxCell>
        <mxCell id="JrcSGZeKWpiTpf5liUEg-4" value="" style="rounded=0;whiteSpace=wrap;html=1;" vertex="1" parent="1">
          <mxGeometry x="400" y="220" width="160" height="20" as="geometry" />
        </mxCell>
        <mxCell id="JrcSGZeKWpiTpf5liUEg-5" value="" style="rounded=0;whiteSpace=wrap;html=1;" vertex="1" parent="1">
          <mxGeometry x="560" y="220" width="160" height="20" as="geometry" />
        </mxCell>
        <mxCell id="JrcSGZeKWpiTpf5liUEg-6" value="" style="rounded=0;whiteSpace=wrap;html=1;" vertex="1" parent="1">
          <mxGeometry x="400" y="240" width="160" height="20" as="geometry" />
        </mxCell>
        <mxCell id="JrcSGZeKWpiTpf5liUEg-7" value="" style="rounded=0;whiteSpace=wrap;html=1;" vertex="1" parent="1">
          <mxGeometry x="560" y="240" width="160" height="20" as="geometry" />
        </mxCell>
        <mxCell id="JrcSGZeKWpiTpf5liUEg-8" value="" style="rounded=0;whiteSpace=wrap;html=1;" vertex="1" parent="1">
          <mxGeometry x="400" y="260" width="160" height="20" as="geometry" />
        </mxCell>
        <mxCell id="JrcSGZeKWpiTpf5liUEg-9" value="" style="rounded=0;whiteSpace=wrap;html=1;" vertex="1" parent="1">
          <mxGeometry x="560" y="260" width="160" height="20" as="geometry" />
        </mxCell>
        <mxCell id="JrcSGZeKWpiTpf5liUEg-10" value="16" style="text;strokeColor=none;align=center;fillColor=none;html=1;verticalAlign=middle;whiteSpace=wrap;rounded=0;" vertex="1" parent="1">
          <mxGeometry x="530" y="150" width="60" height="30" as="geometry" />
        </mxCell>
        <mxCell id="JrcSGZeKWpiTpf5liUEg-11" value="4" style="text;strokeColor=none;align=center;fillColor=none;html=1;verticalAlign=middle;whiteSpace=wrap;rounded=0;" vertex="1" parent="1">
          <mxGeometry x="320" y="220" width="60" height="30" as="geometry" />
        </mxCell>
        <mxCell id="JrcSGZeKWpiTpf5liUEg-12" value="C_wrap" style="text;strokeColor=none;align=center;fillColor=none;html=1;verticalAlign=middle;whiteSpace=wrap;rounded=0;" vertex="1" parent="1">
          <mxGeometry x="540" y="310" width="60" height="30" as="geometry" />
        </mxCell>
      </root>
    </mxGraphModel>
  </diagram>
</mxfile>
